<?xml version="1.0" encoding="UTF-8" standalone="no"?>
<svg
   xmlns:dc="http://purl.org/dc/elements/1.1/"
   xmlns:cc="http://creativecommons.org/ns#"
   xmlns:rdf="http://www.w3.org/1999/02/22-rdf-syntax-ns#"
   xmlns:svg="http://www.w3.org/2000/svg"
   xmlns="http://www.w3.org/2000/svg"
   xmlns:sodipodi="http://sodipodi.sourceforge.net/DTD/sodipodi-0.dtd"
   xmlns:inkscape="http://www.inkscape.org/namespaces/inkscape"
   viewBox="0 0 348 348"
   fill="none"
   font-family="Arial"
   id="svg2"
   version="1.1"
   inkscape:version="0.91 r13725"
   sodipodi:docname="Reverse Morse.svg">
  <metadata
     id="metadata86">
    <rdf:RDF>
      <cc:Work
         rdf:about="">
        <dc:format>image/svg+xml</dc:format>
        <dc:type
           rdf:resource="http://purl.org/dc/dcmitype/StillImage" />
      </cc:Work>
    </rdf:RDF>
  </metadata>
  <defs
     id="defs84" />
  <sodipodi:namedview
     pagecolor="#ffffff"
     bordercolor="#666666"
     borderopacity="1"
     objecttolerance="10"
     gridtolerance="10"
     guidetolerance="10"
     inkscape:pageopacity="0"
     inkscape:pageshadow="2"
     inkscape:window-width="1440"
     inkscape:window-height="785"
     id="namedview82"
     showgrid="false"
     inkscape:zoom="0.95906437"
     inkscape:cx="-45.923738"
     inkscape:cy="145.44454"
     inkscape:window-x="0"
     inkscape:window-y="1"
     inkscape:window-maximized="1"
     inkscape:current-layer="svg2" />
  <path
     d="M5 5.8h337v337.6H5z"
     stroke-width="2"
     stroke="#000"
     id="path4" />
  <path
     d="M282.7 40.6c0-8.4 7-15.2 15.6-15.2 4.1 0 8 1.6 11 4.4a15 15 0 0 1 4.6 10.8c0 8.3-7 15.1-15.6 15.1s-15.6-6.8-15.6-15.1z"
     stroke-width="2"
     stroke="#000"
     id="path6" />
  <path
     d="m 91.558534,53.29627 0,-32.095045 169.526836,0 0,64.286482 -169.526836,0 0,-32.191437 z"
     id="path8"
     inkscape:connector-curvature="0"
     style="fill:#000000" />
  <g
     style="font-style:normal;font-variant:normal;font-weight:normal;font-stretch:normal;font-size:40px;line-height:125%;font-family:'Keep on Truckin\'FW';-inkscape-font-specification:'Keep on Truckin\'FW, Normal';text-align:start;writing-mode:lr-tb;text-anchor:start;fill:#000000"
     id="text78"
     transform="translate(-8.341463,0)">
    <path
       d="m 115.71443,51.16684 19.08081,0 0,5.805664 -19.08081,0 0,-5.805664 z"
       style="font-style:normal;font-variant:normal;font-weight:normal;font-stretch:normal;font-size:72.5px;line-height:125%;font-family:sans-serif;-inkscape-font-specification:sans-serif;text-align:start;writing-mode:lr-tb;text-anchor:start;fill:#ffffff"
       id="path4175"
       inkscape:connector-curvature="0" />
    <path
       d="m 146.12337,64.937592 7.46948,0 0,8.991699 -7.46948,0 0,-8.991699 z"
       style="font-style:normal;font-variant:normal;font-weight:normal;font-stretch:normal;font-size:72.5px;line-height:125%;font-family:sans-serif;-inkscape-font-specification:sans-serif;text-align:start;writing-mode:lr-tb;text-anchor:start;fill:#ffffff"
       id="path4178"
       inkscape:connector-curvature="0" />
    <path
       d="m 169.20442,64.937592 7.46948,0 0,8.991699 -7.46948,0 0,-8.991699 z"
       style="font-style:normal;font-variant:normal;font-weight:normal;font-stretch:normal;font-size:72.5px;line-height:125%;font-family:sans-serif;-inkscape-font-specification:sans-serif;text-align:start;writing-mode:lr-tb;text-anchor:start;fill:#ffffff"
       id="path4180"
       inkscape:connector-curvature="0" />
    <path
       d="m 192.28548,64.937592 7.46948,0 0,8.991699 -7.46948,0 0,-8.991699 z"
       style="font-style:normal;font-variant:normal;font-weight:normal;font-stretch:normal;font-size:72.5px;line-height:125%;font-family:sans-serif;-inkscape-font-specification:sans-serif;text-align:start;writing-mode:lr-tb;text-anchor:start;fill:#ffffff"
       id="path4182"
       inkscape:connector-curvature="0" />
    <path
       d="m 215.36653,64.937592 7.46948,0 0,8.991699 -7.46948,0 0,-8.991699 z"
       style="font-style:normal;font-variant:normal;font-weight:normal;font-stretch:normal;font-size:72.5px;line-height:125%;font-family:sans-serif;-inkscape-font-specification:sans-serif;text-align:start;writing-mode:lr-tb;text-anchor:start;fill:#ffffff"
       id="path4184"
       inkscape:connector-curvature="0" />
    <path
       d="m 234.23494,51.16684 19.08081,0 0,5.805664 -19.08081,0 0,-5.805664 z"
       style="font-style:normal;font-variant:normal;font-weight:normal;font-stretch:normal;font-size:72.5px;line-height:125%;font-family:sans-serif;-inkscape-font-specification:sans-serif;text-align:start;writing-mode:lr-tb;text-anchor:start;fill:#ffffff"
       id="path4186"
       inkscape:connector-curvature="0" />
  </g>
  <text
     sodipodi:linespacing="125%"
     x="80.619514"
     y="317.70367"
     font-size="40"
     id="text4158"
     style="font-style:normal;font-variant:normal;font-weight:normal;font-stretch:normal;font-size:40px;line-height:125%;font-family:'Keep on Truckin\'FW';-inkscape-font-specification:'Keep on Truckin\'FW, Normal';text-align:start;writing-mode:lr-tb;text-anchor:start;fill:#000000">
    <tspan
       x="80.619514"
       y="317.70367"
       font-size="32"
       id="tspan4160"
       style="font-style:normal;font-variant:normal;font-weight:normal;font-stretch:normal;font-size:30px;line-height:125%;font-family:sans-serif;-inkscape-font-specification:sans-serif;text-align:start;writing-mode:lr-tb;text-anchor:start;fill:#ffffff">&lt;DEST&gt;</tspan>
  </text>
  <path
     d="m 80.177986,200.47504 0,-22.63614 194.373304,0 0,45.34027 -194.373304,0 0,-22.70413 z"
     id="path4173"
     inkscape:connector-curvature="0"
     style="fill:#323432;fill-opacity:1;stroke:#000000;stroke-width:2.17792869;stroke-miterlimit:10;stroke-dasharray:none;stroke-opacity:1" />
  <ellipse
     style="fill:#ffffff;fill-opacity:1;stroke-width:0.2;stroke-linejoin:miter;stroke-miterlimit:10;stroke-dasharray:none"
     id="path4177"
     cx="-206.45122"
     cy="228.09146"
     rx="35.451218"
     ry="32.32317" />
  <circle
     style="fill:#ffffff;fill-opacity:1;stroke-width:0.2;stroke-linejoin:miter;stroke-miterlimit:10;stroke-dasharray:none"
     id="path4179"
     cx="-359.72559"
     cy="177"
     r="22.939024" />
  <circle
     style="fill:#323432;fill-opacity:1;stroke:#000000;stroke-width:2;stroke-linejoin:miter;stroke-miterlimit:10;stroke-dasharray:none;stroke-opacity:1"
     id="path4187"
     cx="173.08536"
     cy="279.18298"
     r="25.660025" />
  <path
     style="fill:#000000"
     inkscape:connector-curvature="0"
     id="path4147"
     d="m 23.784146,283.19457 0,-40.94457 87.154874,0 0,82.01209 -87.154874,0 0,-41.06752 z" />
  <g
     style="font-style:normal;font-variant:normal;font-weight:normal;font-stretch:normal;font-size:40px;line-height:125%;font-family:'Keep on Truckin\'FW';-inkscape-font-specification:'Keep on Truckin\'FW, Normal';text-align:start;writing-mode:lr-tb;text-anchor:start;fill:#000000"
     id="text4149"
     transform="translate(-4.1707315,0)">
    <path
       d="m 76.116508,277.96573 -8.52539,0 -2.460938,9.78516 8.583985,0 2.402343,-9.78516 z m -4.394531,-16.66992 -3.046875,12.1582 8.554688,0 3.076172,-12.1582 4.6875,0 -3.017579,12.1582 9.140625,0 0,4.51172 -10.283203,0 -2.402343,9.78516 9.316406,0 0,4.48242 -10.458985,0 -3.046875,12.1289 -4.6875,0 3.017579,-12.1289 -8.583985,0 -3.017578,12.1289 -4.716797,0 3.046875,-12.1289 -9.228515,0 0,-4.48242 10.3125,0 2.460937,-9.78516 -9.433594,0 0,-4.51172 10.576172,0 2.988281,-12.1582 4.746094,0 z"
       style="font-style:normal;font-variant:normal;font-weight:normal;font-stretch:normal;font-size:60px;line-height:125%;font-family:sans-serif;-inkscape-font-specification:sans-serif;text-align:start;writing-mode:lr-tb;text-anchor:start;fill:#ffffff"
       id="path4166"
       inkscape:connector-curvature="0" />
  </g>
  <path
     d="m 237.53414,283.19457 0,-40.94457 87.15487,0 0,82.01209 -87.15487,0 0,-41.06752 z"
     id="path4153"
     inkscape:connector-curvature="0"
     style="fill:#000000" />
  <g
     style="font-style:normal;font-variant:normal;font-weight:normal;font-stretch:normal;font-size:40px;line-height:125%;font-family:'Keep on Truckin\'FW';-inkscape-font-specification:'Keep on Truckin\'FW, Normal';text-align:start;writing-mode:lr-tb;text-anchor:start;fill:#000000"
     id="text4155"
     transform="translate(-4.1707315,0)">
    <path
       d="m 291.95187,279.00842 -8.52539,0 -2.46093,9.78516 8.58398,0 2.40234,-9.78516 z m -4.39453,-16.66992 -3.04687,12.1582 8.55469,0 3.07617,-12.1582 4.6875,0 -3.01758,12.1582 9.14062,0 0,4.51172 -10.2832,0 -2.40234,9.78516 9.3164,0 0,4.48242 -10.45898,0 -3.04688,12.12891 -4.6875,0 3.01758,-12.12891 -8.58398,0 -3.01758,12.12891 -4.7168,0 3.04688,-12.12891 -9.22852,0 0,-4.48242 10.3125,0 2.46094,-9.78516 -9.43359,0 0,-4.51172 10.57617,0 2.98828,-12.1582 4.74609,0 z"
       style="font-style:normal;font-variant:normal;font-weight:normal;font-stretch:normal;font-size:60px;line-height:125%;font-family:sans-serif;-inkscape-font-specification:sans-serif;text-align:start;writing-mode:lr-tb;text-anchor:start;fill:#ffffff"
       id="path4169"
       inkscape:connector-curvature="0" />
  </g>
  <path
     style="fill:#787a78;fill-opacity:1;stroke:#000000;stroke-width:0.97988391;stroke-miterlimit:10;stroke-dasharray:none;stroke-opacity:1"
     inkscape:connector-curvature="0"
     id="path4159"
     d="m 46.213111,135.83875 0,-15.94643 55.851849,0 0,31.94075 -55.851849,0 0,-15.99432 z" />
  <text
     x="58.997559"
     y="145.8744"
     font-size="40"
     id="text4161"
     style="font-style:normal;font-variant:normal;font-weight:normal;font-stretch:normal;font-size:40px;line-height:125%;font-family:'Keep on Truckin\'FW';-inkscape-font-specification:'Keep on Truckin\'FW, Normal';text-align:start;writing-mode:lr-tb;text-anchor:start;fill:#000000"
     sodipodi:linespacing="125%">
    <tspan
       x="58.997559"
       y="145.8744"
       font-size="32"
       id="tspan4163"
       style="font-style:normal;font-variant:normal;font-weight:500;font-stretch:normal;font-size:30px;line-height:125%;font-family:Inconsolata;-inkscape-font-specification:'Inconsolata Medium';text-align:start;writing-mode:lr-tb;text-anchor:start;fill:#ffffff">Br</tspan>
  </text>
  <path
     d="m 146.31067,135.83875 0,-15.94643 55.85185,0 0,31.94075 -55.85185,0 0,-15.99432 z"
     id="path4165"
     inkscape:connector-curvature="0"
     style="fill:#787a78;fill-opacity:1;stroke:#000000;stroke-width:0.97988391;stroke-miterlimit:10;stroke-dasharray:none;stroke-opacity:1" />
  <text
     sodipodi:linespacing="125%"
     style="font-style:normal;font-variant:normal;font-weight:normal;font-stretch:normal;font-size:40px;line-height:125%;font-family:'Keep on Truckin\'FW';-inkscape-font-specification:'Keep on Truckin\'FW, Normal';text-align:start;writing-mode:lr-tb;text-anchor:start;fill:#000000"
     id="text4167"
     font-size="40"
     y="145.8744"
     x="158.05243">
    <tspan
       style="font-style:normal;font-variant:normal;font-weight:500;font-stretch:normal;font-size:30px;line-height:125%;font-family:Inconsolata;-inkscape-font-specification:'Inconsolata Medium';text-align:start;writing-mode:lr-tb;text-anchor:start;fill:#ffffff"
       id="tspan4169"
       font-size="32"
       y="145.8744"
       x="158.05243">Tx</tspan>
  </text>
  <path
     style="fill:#242725;fill-opacity:1;stroke:#000000;stroke-width:0.97988391;stroke-miterlimit:10;stroke-dasharray:none;stroke-opacity:1"
     inkscape:connector-curvature="0"
     id="path4171"
     d="m 253.70701,135.83875 0,-15.94643 55.85185,0 0,31.94075 -55.85185,0 0,-15.99432 z" />
  <g
     style="font-style:normal;font-variant:normal;font-weight:normal;font-stretch:normal;font-size:40px;line-height:125%;font-family:'Keep on Truckin\'FW';-inkscape-font-specification:'Keep on Truckin\'FW, Normal';text-align:start;writing-mode:lr-tb;text-anchor:start;fill:#000000"
     id="text4173">
    <path
       d="m 269.21415,126.14173 0,18.69 2.1,0 0,-8.25 3.63,0 4.14,8.25 2.37,0 -4.32,-8.31 c 2.25,-0.63 3.81,-2.76 3.81,-5.25 0,-1.86 -0.93,-3.63 -2.67,-4.5 -1.17,-0.6 -2.34,-0.63 -3.57,-0.63 l -5.49,0 z m 2.1,1.98 3.39,0 c 0.78,0 1.53,0.03 2.31,0.39 1.17,0.6 1.77,1.8 1.77,3 0,1.2 -0.57,2.31 -1.65,2.85 -0.72,0.36 -1.44,0.39 -2.19,0.39 l -3.63,0 0,-6.63 z"
       style="font-style:normal;font-variant:normal;font-weight:500;font-stretch:normal;font-size:30px;line-height:125%;font-family:Inconsolata;-inkscape-font-specification:'Inconsolata Medium';text-align:start;writing-mode:lr-tb;text-anchor:start;fill:#ffffff"
       id="path4189" />
    <path
       d="m 295.49415,132.95173 c -1.26,-1.38 -3.09,-2.13 -5.13,-2.13 -3.18,0 -5.25,1.77 -5.25,3.81 0,2.4 2.58,3.27 3.33,3.54 1.17,0.42 2.67,0.78 3.69,1.26 1.14,0.54 1.35,1.26 1.35,1.74 0,1.29 -1.56,2.16 -3.51,2.16 -2.34,0 -3.84,-1.41 -4.29,-1.89 -0.09,-0.12 -0.09,-0.21 -0.09,-0.33 0,-0.03 0.03,-0.21 -0.12,-0.27 l -1.26,2.13 c 1.62,1.5 3.72,2.19 5.79,2.19 3.75,0 5.7,-2.22 5.7,-4.29 0,-0.93 -0.39,-2.19 -2.01,-3.09 -1.53,-0.87 -3.75,-1.17 -5.04,-1.8 -1.11,-0.54 -1.35,-1.2 -1.35,-1.68 0,-1.08 1.35,-1.86 2.88,-1.86 1.98,0 3.3,1.2 3.81,1.89 0.09,0.09 0.06,0.18 0.06,0.27 0,0.18 0.12,0.24 0.18,0.24 l 1.26,-1.89 z"
       style="font-style:normal;font-variant:normal;font-weight:500;font-stretch:normal;font-size:30px;line-height:125%;font-family:Inconsolata;-inkscape-font-specification:'Inconsolata Medium';text-align:start;writing-mode:lr-tb;text-anchor:start;fill:#ffffff"
       id="path4191" />
  </g>
  <circle
     cy="32.588482"
     cx="131.89937"
     id="circle4177"
     style="fill:#ffffff;fill-opacity:1;stroke:#000000;stroke-width:0.552917;stroke-linejoin:miter;stroke-miterlimit:10;stroke-dasharray:none;stroke-opacity:1"
     r="7.0939322" />
  <circle
     r="7.0939322"
     style="fill:#ffffff;fill-opacity:1;stroke:#000000;stroke-width:0.552917;stroke-linejoin:miter;stroke-miterlimit:10;stroke-dasharray:none;stroke-opacity:1"
     id="circle4179"
     cx="149.87808"
     cy="32.588482" />
  <circle
     cy="32.588482"
     cx="167.8568"
     id="circle4181"
     style="fill:#ffffff;fill-opacity:1;stroke:#000000;stroke-width:0.552917;stroke-linejoin:miter;stroke-miterlimit:10;stroke-dasharray:none;stroke-opacity:1"
     r="7.0939322" />
  <circle
     r="7.0939322"
     style="fill:#1c1d1c;fill-opacity:1;stroke:#000000;stroke-width:0.552917;stroke-linejoin:miter;stroke-miterlimit:10;stroke-dasharray:none;stroke-opacity:1"
     id="circle4183"
     cx="185.16962"
     cy="32.588482" />
  <circle
     cy="32.588482"
     cx="201.81657"
     id="circle4185"
     style="fill:#1c1d1c;fill-opacity:1;stroke:#000000;stroke-width:0.552917;stroke-linejoin:miter;stroke-miterlimit:10;stroke-dasharray:none;stroke-opacity:1"
     r="7.0939322" />
  <circle
     r="7.0939322"
     style="fill:#1c1d1c;fill-opacity:1;stroke:#000000;stroke-width:0.552917;stroke-linejoin:miter;stroke-miterlimit:10;stroke-dasharray:none;stroke-opacity:1"
     id="circle4187"
     cx="217.79764"
     cy="32.588482" />
</svg>
